<svg width="937" height="28" viewBox="0 0 937 28" fill="none" xmlns="http://www.w3.org/2000/svg">
<g opacity="0.5">
<path d="M0.0974121 26.6811L0 26.7004L0.0974121 27.1908V26.6811Z" fill="black"/>
<path d="M472.475 1.92813C474.82 1.84711 477.166 1.80748 479.511 1.80923L479.512 0.809229C477.155 0.807476 474.797 0.8473 472.44 0.928723L472.475 1.92813Z" fill="black"/>
<path d="M486.548 1.93859C488.892 2.02307 491.235 2.1489 493.576 2.31606L493.647 1.3186C491.295 1.1506 488.94 1.02414 486.584 0.939242L486.548 1.93859Z" fill="black"/>
<path d="M807.098 2.02873C809.518 1.96656 811.938 1.94845 814.357 1.97434L814.368 0.974397C811.936 0.948374 809.504 0.966582 807.072 1.02906L807.098 2.02873Z" fill="black"/>
<path d="M821.613 2.18407C824.03 2.29796 826.445 2.45583 828.857 2.65763L828.94 1.66111C826.516 1.4583 824.089 1.29964 821.66 1.18518L821.613 2.18407Z" fill="black"/>
<path d="M458.436 2.90982C460.77 2.66361 463.107 2.45872 465.447 2.29514L465.377 1.29758C463.026 1.46198 460.677 1.66789 458.331 1.91534L458.436 2.90982Z" fill="black"/>
<path d="M792.61 2.92922C795.02 2.69121 797.432 2.4972 799.846 2.34716L799.784 1.34909C797.358 1.49988 794.933 1.69486 792.512 1.93406L792.61 2.92922Z" fill="black"/>
<path d="M149.921 2.39155C152.455 2.42573 154.987 2.50816 157.518 2.63886L157.57 1.64019C155.026 1.50884 152.481 1.42599 149.935 1.39164L149.921 2.39155Z" fill="black"/>
<path d="M134.727 2.76559C137.256 2.60675 139.788 2.49616 142.32 2.43381L142.296 1.43411C139.75 1.49677 137.206 1.60792 134.664 1.76755L134.727 2.76559Z" fill="black"/>
<path d="M500.585 2.94117C502.917 3.19062 505.245 3.48128 507.569 3.81312L507.71 2.82317C505.375 2.48966 503.035 2.19754 500.692 1.94684L500.585 2.94117Z" fill="black"/>
<path d="M165.101 3.1754C167.623 3.40226 170.142 3.67725 172.657 4.00038L172.784 3.00854C170.257 2.68379 167.725 2.40742 165.19 2.17942L165.101 3.1754Z" fill="black"/>
<path d="M119.604 4.29536C122.115 3.94429 124.631 3.6413 127.151 3.38641L127.05 2.39149C124.518 2.64765 121.989 2.95216 119.466 3.30499L119.604 4.29536Z" fill="black"/>
<path d="M836.078 3.39441C838.48 3.68364 840.877 4.01666 843.268 4.39343L843.424 3.40561C841.02 3.02695 838.611 2.69227 836.198 2.40159L836.078 3.39441Z" fill="black"/>
<path d="M447.971 4.29447C449.13 4.10981 450.29 3.93546 451.451 3.7714L451.311 2.78123C450.144 2.94611 448.979 3.12135 447.814 3.30692L444.295 3.86755L444.453 4.85509L447.971 4.29447Z" fill="black"/>
<path d="M781.808 4.29484C783.005 4.11031 784.202 3.93674 785.401 3.77413L785.266 2.78321C784.062 2.94663 782.858 3.12107 781.656 3.30653L778.002 3.87008L778.155 4.85839L781.808 4.29484Z" fill="black"/>
<path d="M514.517 4.93085C515.671 5.13748 516.824 5.35436 517.976 5.58149L521.207 6.21895L521.4 5.23786L518.169 4.60039C517.012 4.37213 515.853 4.15417 514.693 3.9465L514.517 4.93085Z" fill="black"/>
<path d="M180.176 5.11261C181.425 5.32175 182.673 5.54288 183.919 5.77598L187.379 6.42333L187.562 5.44039L184.102 4.79304C182.85 4.55876 181.596 4.33653 180.341 4.12634L180.176 5.11261Z" fill="black"/>
<path d="M108.363 6.19608C109.606 5.94913 110.851 5.71415 112.098 5.49113L111.922 4.50676C110.669 4.7309 109.418 4.96706 108.168 5.21524L104.788 5.88665L104.983 6.86749L108.363 6.19608Z" fill="black"/>
<path d="M850.417 5.65336C851.604 5.88492 852.79 6.12737 853.973 6.38069L857.258 7.08362L857.467 6.10576L854.183 5.40283C852.993 5.14824 851.802 4.90458 850.609 4.67186L850.417 5.65336Z" fill="black"/>
<path d="M430.379 7.09757L437.416 5.97633L437.259 4.98879L430.222 6.11003L430.379 7.09757Z" fill="black"/>
<path d="M763.541 7.11257L770.848 5.98548L770.696 4.99717L763.389 6.12426L763.541 7.11257Z" fill="black"/>
<path d="M527.67 7.49389L534.132 8.76882L534.326 7.78773L527.863 6.5128L527.67 7.49389Z" fill="black"/>
<path d="M194.299 7.71804L201.219 9.01274L201.403 8.0298L194.483 6.73509L194.299 7.71804Z" fill="black"/>
<path d="M91.4617 9.55314L98.2222 8.21031L98.0274 7.22948L91.2669 8.5723L91.4617 9.55314Z" fill="black"/>
<path d="M416.305 9.34005L423.342 8.21881L423.185 7.23127L416.148 8.35251L416.305 9.34005Z" fill="black"/>
<path d="M748.928 9.36676L756.235 8.23966L756.082 7.25135L748.775 8.37845L748.928 9.36676Z" fill="black"/>
<path d="M863.827 8.48947L870.395 9.89532L870.605 8.91746L864.036 7.51161L863.827 8.48947Z" fill="black"/>
<path d="M540.595 10.0438L547.058 11.3187L547.251 10.3376L540.789 9.06267L540.595 10.0438Z" fill="black"/>
<path d="M208.139 10.3074L215.059 11.6021L215.243 10.6192L208.323 9.3245L208.139 10.3074Z" fill="black"/>
<path d="M402.232 11.5825L409.268 10.4613L409.111 9.47375L402.074 10.595L402.232 11.5825Z" fill="black"/>
<path d="M77.9407 12.2388L84.7012 10.896L84.5064 9.91512L77.7459 11.2579L77.9407 12.2388Z" fill="black"/>
<path d="M876.964 11.3012L883.533 12.707L883.742 11.7292L877.174 10.3233L876.964 11.3012Z" fill="black"/>
<path d="M553.52 12.5936L559.983 13.8686L560.177 12.8875L553.714 11.6125L553.52 12.5936Z" fill="black"/>
<path d="M388.158 13.825L395.195 12.7038L395.037 11.7162L388 12.8375L388.158 13.825Z" fill="black"/>
<path d="M221.979 12.8969L228.899 14.1916L229.083 13.2086L222.163 11.9139L221.979 12.8969Z" fill="black"/>
<path d="M890.102 14.1129L896.671 15.5187L896.88 14.5409L890.311 13.135L890.102 14.1129Z" fill="black"/>
<path d="M566.446 15.1435L572.908 16.4184L573.102 15.4373L566.639 14.1624L566.446 15.1435Z" fill="black"/>
<path d="M235.819 15.4863L242.739 16.781L242.923 15.798L236.003 14.5033L235.819 15.4863Z" fill="black"/>
<path d="M903.24 16.9246L909.808 18.3304L910.018 17.3526L903.449 15.9467L903.24 16.9246Z" fill="black"/>
<path d="M249.659 18.0757L256.579 19.3704L256.763 18.3874L249.843 17.0927L249.659 18.0757Z" fill="black"/>
<path d="M916.377 19.7363L922.946 21.1421L923.155 20.1643L916.586 18.7584L916.377 19.7363Z" fill="black"/>
<path d="M263.499 20.6651L266.96 21.3124C268.086 21.5233 269.215 21.7244 270.344 21.9157L270.511 20.9298C269.387 20.7394 268.265 20.5393 267.143 20.3295L263.683 19.6821L263.499 20.6651Z" fill="black"/>
<path d="M929.515 22.548L932.799 23.2509C933.948 23.4967 935.098 23.7324 936.25 23.9578L936.442 22.9765C935.296 22.7521 934.151 22.5176 933.008 22.273L929.724 21.5701L929.515 22.548Z" fill="black"/>
</g>
</svg>
