<svg version="1.1" id="Layer_1" xmlns="http://www.w3.org/2000/svg" xmlns:xlink="http://www.w3.org/1999/xlink" x="0px" y="0px"
	 width="100%" viewBox="0 0 180 180" enable-background="new 0 0 180 180" xml:space="preserve">
<path fill="#000000" opacity="1.000000" stroke="none" 
	d="
M1.000000,77.000000 
	C1.000000,51.333340 1.000000,26.166679 1.000000,1.000014 
	C60.999981,1.000009 120.999962,1.000009 180.999954,1.000005 
	C180.999969,60.999966 180.999969,120.999931 180.999985,180.999908 
	C121.000046,180.999939 61.000099,180.999939 1.000073,180.999969 
	C1.000000,146.500000 1.000000,112.000000 1.000000,77.000000 
M144.532806,23.024549 
	C137.467697,18.374149 130.791840,12.929539 123.257423,9.236641 
	C106.949829,1.243685 89.344604,0.918134 72.080055,4.660840 
	C49.785004,9.494086 33.149967,22.372757 21.542498,42.494499 
	C12.570179,58.048168 11.495132,74.602081 13.487896,91.260216 
	C15.579220,108.742226 24.259472,123.553246 37.761871,135.342606 
	C46.806530,143.239792 56.815315,149.121796 68.505859,152.020325 
	C71.423523,152.743729 73.653831,153.846985 75.148041,156.990921 
	C77.735512,162.435135 81.596443,167.285904 84.063141,172.772308 
	C86.387825,177.942856 89.819038,178.903122 94.385521,177.720917 
	C97.510742,172.665894 100.885635,167.977280 103.434746,162.876022 
	C106.209900,157.322418 109.115936,152.809097 115.790390,150.951859 
	C137.108505,145.019806 152.246201,131.183655 161.931747,111.691154 
	C170.446106,94.555695 171.285446,76.326622 166.414520,57.928505 
	C162.818817,44.347111 155.702423,32.804028 144.532806,23.024549 
z"/>
<path fill="#1CCD70" opacity="1.000000" stroke="none" 
	d="
M144.783691,23.284620 
	C155.702423,32.804028 162.818817,44.347111 166.414520,57.928505 
	C171.285446,76.326622 170.446106,94.555695 161.931747,111.691154 
	C152.246201,131.183655 137.108505,145.019806 115.790390,150.951859 
	C109.115936,152.809097 106.209900,157.322418 103.434746,162.876022 
	C100.885635,167.977280 97.510742,172.665894 94.385521,177.720917 
	C89.819038,178.903122 86.387825,177.942856 84.063141,172.772308 
	C81.596443,167.285904 77.735512,162.435135 75.148041,156.990921 
	C73.653831,153.846985 71.423523,152.743729 68.505859,152.020325 
	C56.815315,149.121796 46.806530,143.239792 37.761871,135.342606 
	C24.259472,123.553246 15.579220,108.742226 13.487896,91.260216 
	C11.495132,74.602081 12.570179,58.048168 21.542498,42.494499 
	C33.149967,22.372757 49.785004,9.494086 72.080055,4.660840 
	C89.344604,0.918134 106.949829,1.243685 123.257423,9.236641 
	C130.791840,12.929539 137.467697,18.374149 144.783691,23.284620 
M120.872162,113.086456 
	C122.578163,112.051888 124.284164,111.017319 126.549065,109.680969 
	C127.681007,109.102585 128.812943,108.524208 130.609390,107.905602 
	C131.395554,107.254349 132.181717,106.603096 133.037796,105.332718 
	C133.041992,104.918503 133.046188,104.504295 133.359695,103.713104 
	C133.579239,103.472496 133.814880,103.248848 134.580399,103.179306 
	C134.756531,103.199249 134.932648,103.219193 135.526077,103.360497 
	C135.680786,102.573105 135.835510,101.785721 136.000397,100.261826 
	C136.037460,99.527588 136.074539,98.793350 136.732788,97.654022 
	C136.815887,94.433136 136.899002,91.212250 136.976944,87.140640 
	C137.017960,85.439659 137.058960,83.738678 137.714966,81.636688 
	C137.802032,78.420624 137.889099,75.204559 137.971863,71.119141 
	C138.017151,69.098602 138.062454,67.078064 138.743134,64.634583 
	C139.054474,60.366734 139.473450,56.100948 139.555466,51.828697 
	C139.567093,51.222092 137.941177,50.584049 137.057236,50.042568 
	C137.057236,50.042568 136.974304,50.032486 136.948029,49.451057 
	C136.639938,48.979267 136.331863,48.507473 135.344208,47.858646 
	C134.465332,47.536591 133.586456,47.214539 132.928375,46.400414 
	C133.250992,45.993847 133.573593,45.587284 133.719818,44.490288 
	C131.828888,43.079365 130.138107,41.087307 128.013290,40.355545 
	C117.357887,36.685932 106.647949,33.141121 95.821640,30.023069 
	C92.815727,29.157347 89.123032,29.150255 86.129517,30.040602 
	C75.172585,33.299469 64.350800,37.025787 53.549664,40.781784 
	C51.867435,41.366760 50.557655,43.022778 48.812202,44.741772 
	C48.578850,45.483505 48.345497,46.225239 47.557301,47.188892 
	C47.030468,47.470833 46.503632,47.752773 45.527607,48.402695 
	C45.360622,48.946487 45.193638,49.490276 44.944508,50.042198 
	C44.944508,50.042198 44.927929,49.961334 44.172287,50.100784 
	C41.213428,53.248253 41.064854,61.164547 43.942093,65.919083 
	C43.969028,67.942192 43.995964,69.965294 43.617641,72.675781 
	C44.044853,75.796394 44.472061,78.917015 44.934471,82.887375 
	C44.962013,84.588829 44.989555,86.290276 44.614017,88.677620 
	C45.038620,91.804794 45.463219,94.931961 45.943146,98.791718 
	C45.965118,99.527252 45.987095,100.262779 45.702888,101.394463 
	C46.098946,102.009598 46.495007,102.624725 47.419582,103.178711 
	C47.590813,103.132538 47.762047,103.086365 48.301182,103.361458 
	C48.540543,103.583809 48.756714,103.826790 48.909111,104.712715 
	C48.950150,105.126381 48.991192,105.540054 49.239357,106.532341 
	C49.888561,106.966362 50.537769,107.400375 51.827454,108.004700 
	C53.221489,108.664154 54.615528,109.323601 56.257103,110.621353 
	C57.855125,111.397331 59.453148,112.173309 61.671959,113.182571 
	C63.444653,114.127670 65.217346,115.072762 67.260620,116.605782 
	C68.189568,117.053947 69.118507,117.502113 70.651245,118.236908 
	C72.429428,119.166519 74.207611,120.096130 76.255959,121.612000 
	C77.182190,122.062881 78.108421,122.513763 79.540565,123.196404 
	C80.033249,123.454933 80.525940,123.713470 81.149330,124.435410 
	C81.764580,124.632515 82.379829,124.829620 83.788986,125.057762 
	C84.577896,124.998917 85.366806,124.940071 86.766418,124.953186 
	C87.173149,124.952286 87.579880,124.951385 88.310860,125.587502 
	C90.685478,127.605644 92.941872,127.770683 95.634514,124.937614 
	C96.066223,124.885895 96.497932,124.834183 97.442711,125.219856 
	C102.693573,122.677292 107.963448,120.171837 113.154884,117.513229 
	C113.522530,117.324966 113.312958,116.009590 113.629639,114.961212 
	C113.629639,114.961212 113.993294,114.979630 114.764328,115.374794 
	C116.559036,114.643051 118.353752,113.911308 120.872162,113.086456 
z"/>
<path fill="#FCFEFD" opacity="1.000000" stroke="none" 
	d="
M113.993294,114.979630 
	C113.993294,114.979630 113.629639,114.961212 113.193512,115.256096 
	C107.481468,118.628143 102.205551,121.705299 96.929642,124.782471 
	C96.497932,124.834183 96.066223,124.885895 95.022133,124.972214 
	C93.990425,124.981453 93.571106,124.956100 93.154434,124.566727 
	C93.166725,123.482292 93.176369,122.761871 93.316925,121.653809 
	C93.392395,104.803864 93.336929,88.341568 93.361679,71.478706 
	C93.135696,68.049477 94.876488,66.768272 97.463715,65.716133 
	C108.669891,61.158981 119.804756,56.426464 131.249542,51.765251 
	C132.013443,51.488174 132.493393,51.203579 133.292816,50.896248 
	C134.404160,50.558537 135.195999,50.243561 136.231323,49.984398 
	C136.474792,50.040215 136.974304,50.032486 136.974304,50.032486 
	C136.974304,50.032486 137.057236,50.042568 137.058868,50.449104 
	C137.055038,53.240471 137.049591,55.625301 136.883942,58.384064 
	C136.538971,63.186867 136.354202,67.615738 136.096375,72.370438 
	C136.040344,73.139565 136.057388,73.582848 135.913422,74.398285 
	C135.565430,79.196648 135.378464,83.622856 135.114380,88.439407 
	C135.030792,89.887871 135.024338,90.946007 134.848419,92.369141 
	C134.474854,96.170151 134.270737,99.606163 134.066620,103.042175 
	C133.814880,103.248848 133.579239,103.472496 132.852203,103.927040 
	C128.528854,106.401398 124.712975,108.661827 120.902809,110.968979 
	C120.908516,111.015709 121.002266,111.007240 120.712692,111.035713 
	C120.171280,111.338959 119.919449,111.613731 119.671646,111.842117 
	C119.675674,111.795723 119.584671,111.775925 119.254608,111.824524 
	C117.280792,112.908630 115.637047,113.944130 113.993294,114.979630 
z"/>
<path fill="#FDFEFD" opacity="1.000000" stroke="none" 
	d="
M48.949688,104.090408 
	C48.756714,103.826790 48.540543,103.583809 48.156822,102.745621 
	C47.651382,98.426361 47.290298,94.722954 46.976929,90.648453 
	C46.952751,89.534866 46.880867,88.792374 46.908264,87.594193 
	C46.646973,82.766357 46.286392,78.394211 45.967220,73.691475 
	C45.949440,72.922340 45.890247,72.483788 45.930145,71.589706 
	C45.671486,66.760216 45.313732,62.386265 45.003746,57.567734 
	C45.010319,54.735882 44.969124,52.348610 44.927929,49.961334 
	C44.927929,49.961334 44.944508,50.042198 45.235100,50.042290 
	C45.525696,50.042381 46.011963,49.929913 46.299282,50.070808 
	C47.398643,50.447346 48.210682,50.682980 49.226089,51.117577 
	C49.964252,51.463802 50.499050,51.611065 51.336346,51.954536 
	C62.384880,56.598133 73.087952,61.154301 83.903580,65.425491 
	C87.077606,66.678932 88.971863,68.335533 88.577911,72.337921 
	C88.399155,89.536713 88.359978,106.277748 88.211990,123.262894 
	C88.126801,123.683601 88.150421,123.860207 88.102737,124.260208 
	C88.031433,124.483612 87.986610,124.950478 87.986610,124.950478 
	C87.579880,124.951385 87.173149,124.952286 86.271645,124.632675 
	C73.501144,117.571579 61.225418,110.830994 48.949688,104.090408 
z"/>
<path fill="#FAFEFC" opacity="1.000000" stroke="none" 
	d="
M133.896210,45.180717 
	C133.573593,45.587284 133.250992,45.993847 132.444550,46.583321 
	C119.581749,51.672249 107.249657,56.703621 94.780182,61.367676 
	C92.560127,62.198063 89.499237,62.223545 87.288353,61.392406 
	C76.065697,57.173523 65.013367,52.503651 53.852844,48.115196 
	C52.065182,47.412262 50.031887,47.334007 48.112148,46.966972 
	C48.345497,46.225239 48.578850,45.483505 49.348511,44.415138 
	C61.760376,40.437496 73.573303,36.557598 85.551094,33.280205 
	C88.976501,32.342934 93.119507,32.322235 96.520622,33.307049 
	C109.072769,36.941593 121.451981,41.173447 133.896210,45.180717 
z"/>
<path fill="#44D689" opacity="1.000000" stroke="none" 
	d="
M47.834724,47.077934 
	C50.031887,47.334007 52.065182,47.412262 53.852844,48.115196 
	C65.013367,52.503651 76.065697,57.173523 87.288353,61.392406 
	C89.499237,62.223545 92.560127,62.198063 94.780182,61.367676 
	C107.249657,56.703621 119.581749,51.672249 132.334152,46.829353 
	C133.586456,47.214539 134.465332,47.536591 135.674255,48.262287 
	C135.998810,49.086815 135.993332,49.507698 135.987839,49.928581 
	C135.195999,50.243561 134.404160,50.558537 133.100983,50.784611 
	C132.048279,51.049713 131.506927,51.403717 130.965561,51.757721 
	C119.804756,56.426464 108.669891,61.158981 97.463715,65.716133 
	C94.876488,66.768272 93.135696,68.049477 93.129822,71.756905 
	C92.581200,73.561623 92.143196,74.686768 92.138680,75.813652 
	C92.082756,89.799446 92.058037,103.785660 92.129272,117.771240 
	C92.136520,119.196404 92.817612,120.618134 93.186005,122.041458 
	C93.176369,122.761871 93.166725,123.482292 92.786652,124.567131 
	C91.002151,124.633308 89.588104,124.335060 88.174049,124.036812 
	C88.150421,123.860207 88.126801,123.683601 88.491959,123.012169 
	C89.225708,121.093582 89.863297,119.671257 89.870277,118.245850 
	C89.939186,104.183922 89.936478,90.121269 89.845909,76.059517 
	C89.836922,74.664040 89.110786,73.273186 88.717499,71.880180 
	C88.971863,68.335533 87.077606,66.678932 83.903580,65.425491 
	C73.087952,61.154301 62.384880,56.598133 51.260334,51.740097 
	C50.262123,51.192509 49.642426,51.055561 49.022724,50.918613 
	C48.210682,50.682980 47.398643,50.447346 46.296555,49.754753 
	C45.996609,48.876766 45.986702,48.455742 45.976795,48.034714 
	C46.503632,47.752773 47.030468,47.470833 47.834724,47.077934 
z"/>
<path fill="#48D78C" opacity="1.000000" stroke="none" 
	d="
M133.808014,44.835503 
	C121.451981,41.173447 109.072769,36.941593 96.520622,33.307049 
	C93.119507,32.322235 88.976501,32.342934 85.551094,33.280205 
	C73.573303,36.557598 61.760376,40.437496 49.480232,44.136017 
	C50.557655,43.022778 51.867435,41.366760 53.549664,40.781784 
	C64.350800,37.025787 75.172585,33.299469 86.129517,30.040602 
	C89.123032,29.150255 92.815727,29.157347 95.821640,30.023069 
	C106.647949,33.141121 117.357887,36.685932 128.013290,40.355545 
	C130.138107,41.087307 131.828888,43.079365 133.808014,44.835503 
z"/>
<path fill="#5BDB98" opacity="1.000000" stroke="none" 
	d="
M48.929398,104.401566 
	C61.225418,110.830994 73.501144,117.571579 85.966293,124.596695 
	C85.366806,124.940071 84.577896,124.998917 83.183701,124.846725 
	C82.058479,124.414467 81.538559,124.193230 81.018631,123.972000 
	C80.525940,123.713470 80.033249,123.454933 79.104851,122.826935 
	C77.774689,121.980232 76.880241,121.502983 75.985794,121.025742 
	C74.207611,120.096130 72.429428,119.166519 70.165047,117.841187 
	C68.782585,116.969597 67.886314,116.493729 66.990044,116.017860 
	C65.217346,115.072762 63.444653,114.127670 61.164391,112.800095 
	C59.107738,111.606094 57.558651,110.794571 56.009567,109.983047 
	C54.615528,109.323601 53.221489,108.664154 51.366951,107.658516 
	C50.281712,106.859459 49.656975,106.406593 49.032234,105.953720 
	C48.991192,105.540054 48.950150,105.126381 48.929398,104.401566 
z"/>
<path fill="#37D381" opacity="1.000000" stroke="none" 
	d="
M97.186172,125.001160 
	C102.205551,121.705299 107.481468,118.628143 113.064590,115.384644 
	C113.312958,116.009590 113.522530,117.324966 113.154884,117.513229 
	C107.963448,120.171837 102.693573,122.677292 97.186172,125.001160 
z"/>
<path fill="#33D27F" opacity="1.000000" stroke="none" 
	d="
M44.550110,50.031059 
	C44.969124,52.348610 45.010319,54.735882 44.805191,57.900627 
	C44.336433,60.804581 44.114002,62.931065 43.891571,65.057549 
	C41.064854,61.164547 41.213428,53.248253 44.550110,50.031059 
z"/>
<path fill="#33D27F" opacity="1.000000" stroke="none" 
	d="
M137.044159,58.010128 
	C137.049591,55.625301 137.055038,53.240471 137.066833,50.408104 
	C137.941177,50.584049 139.567093,51.222092 139.555466,51.828697 
	C139.473450,56.100948 139.054474,60.366734 138.382568,64.431641 
	C137.696045,62.155842 137.370102,60.082985 137.044159,58.010128 
z"/>
<path fill="#5BDB98" opacity="1.000000" stroke="none" 
	d="
M43.916832,65.488312 
	C44.114002,62.931065 44.336433,60.804581 44.757423,58.345203 
	C45.313732,62.386265 45.671486,66.760216 45.628407,71.592949 
	C44.826015,72.030624 44.424461,72.009514 44.022903,71.988403 
	C43.995964,69.965294 43.969028,67.942192 43.916832,65.488312 
z"/>
<path fill="#5BDB98" opacity="1.000000" stroke="none" 
	d="
M136.883942,58.384064 
	C137.370102,60.082985 137.696045,62.155842 138.064865,64.643112 
	C138.062454,67.078064 138.017151,69.098602 137.673065,71.566383 
	C136.972656,72.023956 136.571045,72.034279 136.169418,72.044601 
	C136.354202,67.615738 136.538971,63.186867 136.883942,58.384064 
z"/>
<path fill="#5BDB98" opacity="1.000000" stroke="none" 
	d="
M135.191498,88.049065 
	C135.378464,83.622856 135.565430,79.196648 136.108139,74.738678 
	C136.675919,77.150505 136.887955,79.594101 137.099976,82.037697 
	C137.058960,83.738678 137.017960,85.439659 136.681213,87.579170 
	C135.987488,88.028160 135.589478,88.038612 135.191498,88.049065 
z"/>
<path fill="#5BDB98" opacity="1.000000" stroke="none" 
	d="
M45.925808,74.022057 
	C46.286392,78.394211 46.646973,82.766357 46.609238,87.598190 
	C45.812981,88.035820 45.415035,88.013771 45.017097,87.991730 
	C44.989555,86.290276 44.962013,84.588829 44.958122,82.038437 
	C45.296452,78.800346 45.611130,76.411201 45.925808,74.022057 
z"/>
<path fill="#5BDB98" opacity="1.000000" stroke="none" 
	d="
M120.897102,110.922249 
	C124.712975,108.661827 128.528854,106.401398 132.697540,104.115524 
	C133.046188,104.504295 133.041992,104.918503 132.699921,105.715073 
	C131.556320,106.713562 130.750610,107.329697 129.944885,107.945831 
	C128.812943,108.524208 127.681007,109.102585 125.904526,109.899445 
	C123.805695,110.386024 122.351395,110.654137 120.897102,110.922249 
z"/>
<path fill="#33D27F" opacity="1.000000" stroke="none" 
	d="
M135.114380,88.439407 
	C135.589478,88.038612 135.987488,88.028160 136.683792,88.004532 
	C136.899002,91.212250 136.815887,94.433136 136.379028,97.457314 
	C135.689484,95.508446 135.353683,93.756294 135.017883,92.004135 
	C135.024338,90.946007 135.030792,89.887871 135.114380,88.439407 
z"/>
<path fill="#33D27F" opacity="1.000000" stroke="none" 
	d="
M44.815556,88.334671 
	C45.415035,88.013771 45.812981,88.035820 46.509949,88.053871 
	C46.880867,88.792374 46.952751,89.534866 46.782833,90.982948 
	C46.323292,93.812073 46.105556,95.935600 45.887817,98.059135 
	C45.463219,94.931961 45.038620,91.804794 44.815556,88.334671 
z"/>
<path fill="#33D27F" opacity="1.000000" stroke="none" 
	d="
M137.407471,81.837189 
	C136.887955,79.594101 136.675919,77.150505 136.269165,74.366524 
	C136.057388,73.582848 136.040344,73.139565 136.096375,72.370438 
	C136.571045,72.034279 136.972656,72.023956 137.675217,72.001060 
	C137.889099,75.204559 137.802032,78.420624 137.407471,81.837189 
z"/>
<path fill="#5BDB98" opacity="1.000000" stroke="none" 
	d="
M45.915482,98.425430 
	C46.105556,95.935600 46.323292,93.812073 46.735123,91.354034 
	C47.290298,94.722954 47.651382,98.426361 47.972870,102.584984 
	C47.762047,103.086365 47.590813,103.132538 47.120129,102.901321 
	C46.550140,102.082062 46.279602,101.540184 46.009071,100.998314 
	C45.987095,100.262779 45.965118,99.527252 45.915482,98.425430 
z"/>
<path fill="#33D27F" opacity="1.000000" stroke="none" 
	d="
M45.967220,73.691475 
	C45.611130,76.411201 45.296452,78.800346 44.940521,81.613556 
	C44.472061,78.917015 44.044853,75.796394 43.820274,72.332092 
	C44.424461,72.009514 44.826015,72.030624 45.529312,72.048477 
	C45.890247,72.483788 45.949440,72.922340 45.967220,73.691475 
z"/>
<path fill="#5BDB98" opacity="1.000000" stroke="none" 
	d="
M134.848419,92.369141 
	C135.353683,93.756294 135.689484,95.508446 136.068451,97.659859 
	C136.074539,98.793350 136.037460,99.527588 135.811279,100.874146 
	C135.451035,102.070679 135.279907,102.654900 135.108765,103.239128 
	C134.932648,103.219193 134.756531,103.199249 134.323502,103.110741 
	C134.270737,99.606163 134.474854,96.170151 134.848419,92.369141 
z"/>
<path fill="#34D27F" opacity="1.000000" stroke="none" 
	d="
M88.102737,124.260208 
	C89.588104,124.335060 91.002151,124.633308 92.783997,124.931152 
	C93.571106,124.956100 93.990425,124.981453 94.715446,125.083099 
	C92.941872,127.770683 90.685478,127.605644 88.148735,125.268990 
	C87.986610,124.950478 88.031433,124.483612 88.102737,124.260208 
z"/>
<path fill="#37D381" opacity="1.000000" stroke="none" 
	d="
M114.378815,115.177216 
	C115.637047,113.944130 117.280792,112.908630 119.396622,112.175346 
	C119.961952,112.711563 120.055214,112.945572 120.148468,113.179565 
	C118.353752,113.911308 116.559036,114.643051 114.378815,115.177216 
z"/>
<path fill="#33D27F" opacity="1.000000" stroke="none" 
	d="
M120.510315,113.133011 
	C120.055214,112.945572 119.961952,112.711563 119.726685,112.126740 
	C119.584671,111.775925 119.675674,111.795723 119.915131,111.725113 
	C120.437149,111.438751 120.719704,111.222992 121.002258,111.007233 
	C121.002266,111.007240 120.908516,111.015709 120.902809,110.968979 
	C122.351395,110.654137 123.805695,110.386024 125.625076,110.050331 
	C124.284164,111.017319 122.578163,112.051888 120.510315,113.133011 
z"/>
<path fill="#33D27F" opacity="1.000000" stroke="none" 
	d="
M56.133335,110.302200 
	C57.558651,110.794571 59.107738,111.606094 60.853996,112.683456 
	C59.453148,112.173309 57.855125,111.397331 56.133335,110.302200 
z"/>
<path fill="#33D27F" opacity="1.000000" stroke="none" 
	d="
M45.855980,101.196388 
	C46.279602,101.540184 46.550140,102.082062 46.855869,102.931900 
	C46.495007,102.624725 46.098946,102.009598 45.855980,101.196388 
z"/>
<path fill="#33D27F" opacity="1.000000" stroke="none" 
	d="
M135.317413,103.299812 
	C135.279907,102.654900 135.451035,102.070679 135.806183,101.242393 
	C135.835510,101.785721 135.680786,102.573105 135.317413,103.299812 
z"/>
<path fill="#34D27F" opacity="1.000000" stroke="none" 
	d="
M76.120880,121.318871 
	C76.880241,121.502983 77.774689,121.980232 78.851898,122.711060 
	C78.108421,122.513763 77.182190,122.062881 76.120880,121.318871 
z"/>
<path fill="#33D27F" opacity="1.000000" stroke="none" 
	d="
M130.277130,107.925720 
	C130.750610,107.329697 131.556320,106.713562 132.664948,106.024635 
	C132.181717,106.603096 131.395554,107.254349 130.277130,107.925720 
z"/>
<path fill="#34D27F" opacity="1.000000" stroke="none" 
	d="
M67.125336,116.311821 
	C67.886314,116.493729 68.782585,116.969597 69.863152,117.697876 
	C69.118507,117.502113 68.189568,117.053947 67.125336,116.311821 
z"/>
<path fill="#34D27F" opacity="1.000000" stroke="none" 
	d="
M81.083984,124.203705 
	C81.538559,124.193230 82.058479,124.414467 82.786743,124.831207 
	C82.379829,124.829620 81.764580,124.632515 81.083984,124.203705 
z"/>
<path fill="#33D27F" opacity="1.000000" stroke="none" 
	d="
M49.135796,106.243027 
	C49.656975,106.406593 50.281712,106.859459 51.046715,107.573364 
	C50.537769,107.400375 49.888561,106.966362 49.135796,106.243027 
z"/>
<path fill="#5BDB98" opacity="1.000000" stroke="none" 
	d="
M136.231323,49.984398 
	C135.993332,49.507698 135.998810,49.086815 136.014038,48.350803 
	C136.331863,48.507473 136.639938,48.979267 136.961166,49.741772 
	C136.974304,50.032486 136.474792,50.040215 136.231323,49.984398 
z"/>
<path fill="#5BDB98" opacity="1.000000" stroke="none" 
	d="
M45.752201,48.218704 
	C45.986702,48.455742 45.996609,48.876766 46.009239,49.613853 
	C46.011963,49.929913 45.525696,50.042381 45.276176,50.038223 
	C45.193638,49.490276 45.360622,48.946487 45.752201,48.218704 
z"/>
<path fill="#6DDFA3" opacity="1.000000" stroke="none" 
	d="
M93.316925,121.653809 
	C92.817612,120.618134 92.136520,119.196404 92.129272,117.771240 
	C92.058037,103.785660 92.082756,89.799446 92.138680,75.813652 
	C92.143196,74.686768 92.581200,73.561623 93.049622,72.157471 
	C93.336929,88.341568 93.392395,104.803864 93.316925,121.653809 
z"/>
<path fill="#5BDB98" opacity="1.000000" stroke="none" 
	d="
M131.249542,51.765247 
	C131.506927,51.403717 132.048279,51.049713 132.781494,50.807343 
	C132.493393,51.203579 132.013443,51.488174 131.249542,51.765247 
z"/>
<path fill="#37D381" opacity="1.000000" stroke="none" 
	d="
M120.712685,111.035706 
	C120.719704,111.222992 120.437149,111.438751 119.911102,111.771515 
	C119.919449,111.613731 120.171280,111.338959 120.712685,111.035706 
z"/>
<path fill="#6DDFA3" opacity="1.000000" stroke="none" 
	d="
M88.577911,72.337921 
	C89.110786,73.273186 89.836922,74.664040 89.845909,76.059517 
	C89.936478,90.121269 89.939186,104.183922 89.870277,118.245850 
	C89.863297,119.671257 89.225708,121.093582 88.600784,122.768066 
	C88.359978,106.277748 88.399155,89.536713 88.577911,72.337921 
z"/>
<path fill="#5BDB98" opacity="1.000000" stroke="none" 
	d="
M49.226089,51.117577 
	C49.642426,51.055561 50.262123,51.192509 50.957836,51.543892 
	C50.499050,51.611065 49.964252,51.463802 49.226089,51.117577 
z"/>
</svg>